<svg xmlns="http://www.w3.org/2000/svg" width="20" height="20" viewBox="0 0 20 20">
    <rect width="20" height="20" fill="#FC4475"/>
    <path fill="#FFF" d="M13.0192659,5 L7.06349694,5 C6.24191531,5 6,5.619732 6,6.01079783 L6,15.5018441 C6,15.9414432 6.23540221,16.1047762 6.36845563,16.157976 C6.50150905,16.2121093 6.86624291,16.2569092 7.08582758,16.0039764 C7.08582758,16.0039764 9.89669743,12.7317167 9.9450805,12.6831835 C10.0185855,12.6094503 10.0185855,12.6094503 10.0911601,12.6094503 L11.9111076,12.6094503 C12.6750018,12.6094503 12.7978203,12.0625182 12.8778385,11.7405189 C12.9215693,11.5622526 13.2639725,9.82065632 13.5617144,8.31239289 L13.9385441,6.42613027 C14.1283545,5.50026559 13.8938828,5 13.0192659,5 L13.0192659,5 Z M12.4172689,7.92319373 C12.3874947,8.06412676 12.20978,8.21345977 12.046022,8.21345977 L9.72549583,8.21345977 C9.46497164,8.21345977 9.2779525,8.39172605 9.2779525,8.65399216 L9.2779525,8.93865821 C9.2779525,9.19999098 9.46590209,9.38572392 9.72735671,9.38572392 L11.6971056,9.38572392 C11.8822639,9.38572392 12.0627699,9.58825682 12.0227609,9.78612306 C11.9827518,9.9839893 11.7957326,10.9630539 11.7724716,11.0713203 C11.7501409,11.1795867 11.6263919,11.3643863 11.4068073,11.3643863 L9.79900087,11.3643863 C9.5068416,11.3643863 9.41751902,11.4026529 9.22212589,11.6462524 C9.02673275,11.8907852 7.26540318,14.011314 7.26540318,14.011314 C7.24772475,14.0309139 7.23004632,14.0262473 7.23004632,14.002914 L7.23004632,6.59692991 C7.23004632,6.4298636 7.37519551,6.23386402 7.59198885,6.23386402 L12.3716772,6.23386402 C12.547531,6.23386402 12.7122195,6.39999699 12.6666278,6.61652986 L12.4172689,7.92319373 L12.4172689,7.92319373 Z"/>
</svg>
