<svg xmlns="http://www.w3.org/2000/svg" width="20" height="20" viewBox="0 0 20 20">
    <rect width="20" height="20" fill="#4A74A5"/>
    <path fill="#FFF" d="M10.6865939,13.96645 C10.6865939,13.96645 10.9392986,13.9385509 11.0685102,13.7993013 C11.1872706,13.67131 11.1834746,13.4311293 11.1834746,13.4311293 C11.1834746,13.4311293 11.1671073,12.306467 11.6881445,12.1408488 C12.2019839,11.9776009 12.8616485,13.2277854 13.5608016,13.7085421 C14.0895294,14.0722205 14.491313,13.9926211 14.491313,13.9926211 L16.3609629,13.96645 C16.3609629,13.96645 17.3389486,13.9060098 16.8751966,13.1357919 C16.8372367,13.0728826 16.6050402,12.5660538 15.4850252,11.5247435 C14.3126055,10.4348439 14.4697695,10.6111773 15.8819283,8.72592581 C16.7419425,7.57780838 17.0857018,6.87691883 16.97828,6.57674228 C16.875936,6.29073738 16.2433364,6.36628775 16.2433364,6.36628775 L14.1382857,6.3793239 C14.1382857,6.3793239 13.9821076,6.35804144 13.866453,6.42736978 C13.7533125,6.49516752 13.6806958,6.65357628 13.6806958,6.65357628 C13.6806958,6.65357628 13.3473879,7.54195898 12.9032074,8.29761013 C11.9658435,9.89186945 11.5909769,9.97625864 11.4377569,9.87710506 C11.0812785,9.64635567 11.1703611,8.95030526 11.1703611,8.45567311 C11.1703611,6.9105954 11.4043324,6.26639332 10.7147434,6.09963965 C10.4859485,6.04433484 10.3173966,6.00774479 9.73217279,6.00176992 C8.9810098,5.99411613 8.34540274,6.00409067 7.98542432,6.18072028 C7.74593173,6.29819375 7.56116051,6.55990388 7.6737585,6.57496452 C7.81292851,6.59353115 8.12794671,6.66014387 8.29497029,6.88778235 C8.51075035,7.18183591 8.50320771,7.84193809 8.50320771,7.84193809 C8.50320771,7.84193809 8.6271936,9.66072498 8.21372613,9.88658592 C7.93001275,10.041538 7.54075091,9.72521438 6.70504081,8.27879655 C6.27693174,7.53790978 5.95358205,6.71885585 5.95358205,6.71885585 C5.95358205,6.71885585 5.89131784,6.56582944 5.78010026,6.48390913 C5.64521938,6.38465673 5.45675078,6.3532023 5.45675078,6.3532023 L3.45631241,6.36628775 C3.45631241,6.36628775 3.15608307,6.37468219 3.04575281,6.50548784 C2.94759931,6.6219242 3.03791504,6.8624507 3.03791504,6.8624507 C3.03791504,6.8624507 4.60393488,10.5324174 6.37730375,12.381869 C8.00351696,14.077751 9.84979935,13.96645 9.84979935,13.96645 L10.6865939,13.96645 Z"/>
</svg>
